<?xml version="1.0" encoding="UTF-8"?> <svg xmlns="http://www.w3.org/2000/svg" width="388" height="141" viewBox="0 0 388 141" fill="none"><path d="M171.097 5C173.394 5 174.946 7.2253 174.049 9.23236L116.298 138.383C115.191 140.858 111.493 140.855 110.391 138.378L90.1969 93.0118C89.0951 90.5366 85.4006 90.5317 84.2917 93.0041L63.9241 138.411C62.8162 140.881 59.126 140.879 58.0209 138.408L0.258227 9.23236C-0.639256 7.2253 0.913017 5 3.21053 5H21.6243C22.9117 5 24.0744 5.73062 24.577 6.85546L58.0176 81.7037C59.1227 84.1771 62.8164 84.1778 63.9225 81.7048L73.98 59.2194C74.3203 58.4585 74.3199 57.5991 73.9789 56.8386L52.6344 9.23511C51.7343 7.22771 53.2866 5 55.5855 5H74.0495C75.3343 5 76.4951 5.72766 76.9993 6.84912L84.2771 23.0363C85.3895 25.5106 89.0896 25.4991 90.1849 23.0179L97.3148 6.86748C97.8142 5.73623 98.9803 5 100.273 5H118.687C120.982 5 122.534 7.22025 121.642 9.22657L100.47 56.8487C100.134 57.6033 100.133 58.4545 100.467 59.2097L110.396 81.6567C111.494 84.1392 115.199 84.1455 116.306 81.6668L149.73 6.85547C150.233 5.73062 151.395 5 152.683 5H171.097Z" fill="black"></path><path d="M281.534 20.5822C281.534 22.263 280.098 23.6256 278.327 23.6256H248.122C246.351 23.6256 244.915 24.9883 244.915 26.6691V136.957C244.915 138.637 243.479 140 241.708 140H223.994C222.223 140 220.787 138.637 220.787 136.957V26.6691C220.787 24.9883 219.351 23.6256 217.58 23.6256H187.175C185.403 23.6256 183.967 22.263 183.967 20.5822V3.04348C183.967 1.36261 185.403 0 187.175 0H278.327C280.098 0 281.534 1.36261 281.534 3.04348V20.5822Z" fill="black"></path><path d="M329.985 6.60492C328.879 4.13174 325.185 4.13225 324.08 6.60574L266.369 135.768C265.473 137.775 267.025 140 269.322 140H287.699C288.98 140 290.139 139.276 290.645 138.159L295.981 126.382L312.334 89.8084L324.082 63.3379C325.183 60.8569 328.886 60.8544 329.991 63.3339L357.681 125.402L363.42 138.152C363.925 139.273 365.085 140 366.37 140H384.789C387.087 140 388.639 137.775 387.742 135.768L329.985 6.60492Z" fill="black"></path></svg> 